<svg width="23" height="17" viewBox="0 0 23 17" fill="none" xmlns="http://www.w3.org/2000/svg">
<path d="M22.2093 3.20799C21.9494 2.24164 21.1875 1.47987 20.2213 1.21966C18.4561 0.736694 11.3954 0.736694 11.3954 0.736694C11.3954 0.736694 4.33491 0.736694 2.56976 1.20135C1.62213 1.46129 0.841642 2.24177 0.581708 3.20799C0.117188 4.973 0.117188 8.63341 0.117188 8.63341C0.117188 8.63341 0.117188 12.3123 0.581708 14.0588C0.841917 15.025 1.60354 15.7868 2.5699 16.047C4.3535 16.5301 11.3957 16.5301 11.3957 16.5301C11.3957 16.5301 18.4561 16.5301 20.2213 16.0655C21.1876 15.8054 21.9494 15.0436 22.2096 14.0774C22.674 12.3123 22.674 8.652 22.674 8.652C22.674 8.652 22.6926 4.973 22.2093 3.20799ZM9.14739 12.015V5.2518L15.0187 8.63341L9.14739 12.015Z" fill="#FFB53B"/>
</svg>
