<svg width="24" height="18" viewBox="0 0 24 18" fill="none" xmlns="http://www.w3.org/2000/svg">
<path d="M23.2836 2.2143C22.4385 2.56318 21.5381 2.79443 20.5993 2.90671C21.5651 2.36401 22.3022 1.51119 22.6487 0.483261C21.7483 0.988536 20.7541 1.34544 19.6946 1.54461C18.8396 0.687777 17.621 0.157104 16.2917 0.157104C13.7125 0.157104 11.6361 2.12741 11.6361 4.54284C11.6361 4.89038 11.6674 5.22456 11.7441 5.5427C7.87102 5.36492 4.44396 3.61784 2.14173 0.956455C1.7398 1.61278 1.50404 2.36401 1.50404 3.17272C1.50404 4.69122 2.33488 6.03728 3.57334 6.81658C2.82487 6.80321 2.0906 6.5987 1.46853 6.27655C1.46853 6.28992 1.46853 6.30729 1.46853 6.32467C1.46853 8.45538 3.08336 10.2252 5.20095 10.6329C4.82174 10.7305 4.40845 10.7772 3.97954 10.7772C3.68128 10.7772 3.38019 10.7612 3.09756 10.7024C3.70117 12.4388 5.41399 13.7153 7.45063 13.7568C5.86563 14.9237 3.85313 15.6268 1.67447 15.6268C1.29242 15.6268 0.925995 15.6108 0.55957 15.5667C2.6232 16.8192 5.06887 17.5343 7.70628 17.5343C16.2789 17.5343 20.9657 10.8508 20.9657 5.05747C20.9657 4.86365 20.9586 4.67651 20.9487 4.49071C21.8733 3.87315 22.6502 3.10187 23.2836 2.2143Z" fill="#FFB53B"/>
</svg>
