<svg width="314" height="89" viewBox="0 0 314 89" fill="none" xmlns="http://www.w3.org/2000/svg">
<path d="M45.04 33.8594H262.281L299.541 64.6283H10L45.04 33.8594Z" fill="url(#paint0_linear_215_3189)"/>
<path d="M299.541 64.6284H10V65.5075H299.541V64.6284Z" fill="url(#paint1_linear_215_3189)"/>
<path d="M299.541 65.5073H10V75.1776H299.541V65.5073Z" fill="url(#paint2_linear_215_3189)"/>
<g filter="url(#filter0_f_215_3189)">
<path d="M30.2861 58.7759L56.0169 36.2993H254.8L283.558 58.7759H30.2861Z" fill="#9A0806"/>
</g>
<path d="M72.1395 25.0684H236.339L264.501 48.3247H45.6548L72.1395 25.0684Z" fill="url(#paint3_linear_215_3189)"/>
<path d="M264.501 48.3247H45.6548V48.9892H264.501V48.3247Z" fill="url(#paint4_linear_215_3189)"/>
<path d="M264.501 48.989H45.6548V56.2982H264.501V48.989Z" fill="url(#paint5_linear_215_3189)"/>
<g filter="url(#filter1_f_215_3189)">
<path d="M77.0063 42.9814L92.6821 30.2244H213.785L231.305 42.9814H77.0063Z" fill="#5B0603"/>
</g>
<path d="M104.715 21.1123H204.092L221.136 35.1875H88.6865L104.715 21.1123Z" fill="url(#paint6_linear_215_3189)"/>
<path d="M221.136 35.1875H88.6865V35.5896H221.136V35.1875Z" fill="url(#paint7_linear_215_3189)"/>
<path d="M221.136 35.5894H88.6865V40.013H221.136V35.5894Z" fill="url(#paint8_linear_215_3189)"/>
<defs>
<filter id="filter0_f_215_3189" x="0.286133" y="6.29932" width="313.271" height="82.4766" filterUnits="userSpaceOnUse" color-interpolation-filters="sRGB">
<feFlood flood-opacity="0" result="BackgroundImageFix"/>
<feBlend mode="normal" in="SourceGraphic" in2="BackgroundImageFix" result="shape"/>
<feGaussianBlur stdDeviation="15" result="effect1_foregroundBlur_215_3189"/>
</filter>
<filter id="filter1_f_215_3189" x="47.0063" y="0.224365" width="214.299" height="72.7571" filterUnits="userSpaceOnUse" color-interpolation-filters="sRGB">
<feFlood flood-opacity="0" result="BackgroundImageFix"/>
<feBlend mode="normal" in="SourceGraphic" in2="BackgroundImageFix" result="shape"/>
<feGaussianBlur stdDeviation="15" result="effect1_foregroundBlur_215_3189"/>
</filter>
<linearGradient id="paint0_linear_215_3189" x1="154.771" y1="33.8594" x2="154.771" y2="64.6283" gradientUnits="userSpaceOnUse">
<stop stop-color="#B2423A"/>
<stop offset="1" stop-color="#FF4F40"/>
</linearGradient>
<linearGradient id="paint1_linear_215_3189" x1="288.476" y1="65.506" x2="10" y2="65.506" gradientUnits="userSpaceOnUse">
<stop stop-color="#E25C59"/>
<stop offset="0.489583" stop-color="#FFA095"/>
<stop offset="1" stop-color="#D7524F"/>
</linearGradient>
<linearGradient id="paint2_linear_215_3189" x1="288.476" y1="75.1612" x2="10" y2="75.1612" gradientUnits="userSpaceOnUse">
<stop stop-color="#800502"/>
<stop offset="0.445916" stop-color="#F1796B"/>
<stop offset="1" stop-color="#800502"/>
</linearGradient>
<linearGradient id="paint3_linear_215_3189" x1="155.078" y1="25.0684" x2="155.078" y2="48.3247" gradientUnits="userSpaceOnUse">
<stop stop-color="#B2423A"/>
<stop offset="1" stop-color="#FF4F40"/>
</linearGradient>
<linearGradient id="paint4_linear_215_3189" x1="256.138" y1="48.9881" x2="45.6548" y2="48.9881" gradientUnits="userSpaceOnUse">
<stop stop-color="#E25C59"/>
<stop offset="0.489583" stop-color="#FFA095"/>
<stop offset="1" stop-color="#D7524F"/>
</linearGradient>
<linearGradient id="paint5_linear_215_3189" x1="256.138" y1="56.2858" x2="45.6548" y2="56.2858" gradientUnits="userSpaceOnUse">
<stop stop-color="#800502"/>
<stop offset="0.445916" stop-color="#F1796B"/>
<stop offset="1" stop-color="#800502"/>
</linearGradient>
<linearGradient id="paint6_linear_215_3189" x1="154.911" y1="21.1123" x2="154.911" y2="35.1875" gradientUnits="userSpaceOnUse">
<stop stop-color="#B2423A"/>
<stop offset="1" stop-color="#FF4F40"/>
</linearGradient>
<linearGradient id="paint7_linear_215_3189" x1="216.074" y1="35.589" x2="88.6865" y2="35.589" gradientUnits="userSpaceOnUse">
<stop stop-color="#E25C59"/>
<stop offset="0.489583" stop-color="#FFA095"/>
<stop offset="1" stop-color="#D7524F"/>
</linearGradient>
<linearGradient id="paint8_linear_215_3189" x1="216.074" y1="40.0055" x2="88.6865" y2="40.0055" gradientUnits="userSpaceOnUse">
<stop stop-color="#800502"/>
<stop offset="0.445916" stop-color="#F1796B"/>
<stop offset="1" stop-color="#800502"/>
</linearGradient>
</defs>
</svg>
