<svg width="48" height="53" viewBox="0 0 48 53" fill="none" xmlns="http://www.w3.org/2000/svg">
<path d="M33.3097 17C33.4588 15.3594 33.0611 14.075 32.1165 13.147C31.1719 12.2024 29.581 11.7301 27.3438 11.7301C25.9186 11.7301 24.7254 11.8958 23.7642 12.2273C22.8196 12.5587 22.0821 13.0144 21.5518 13.5945C21.0381 14.1745 20.715 14.8456 20.5824 15.608C20.4332 16.2045 20.4415 16.7514 20.6072 17.2486C20.7895 17.7292 21.1293 18.1683 21.6264 18.5661C22.1402 18.9638 22.8113 19.3201 23.6399 19.6349C24.4851 19.9498 25.4877 20.2315 26.6477 20.4801L30.625 21.375C33.3428 21.9716 35.6214 22.7588 37.4609 23.7365C39.317 24.6977 40.7753 25.8411 41.8359 27.1669C42.8965 28.4927 43.5926 29.9759 43.924 31.6165C44.272 33.2571 44.2803 35.0469 43.9489 36.9858C43.3854 40.3333 42.0845 43.1671 40.0462 45.4872C38.0078 47.8073 35.348 49.5722 32.0668 50.782C28.7855 51.9917 24.9905 52.5966 20.6818 52.5966C16.2737 52.5966 12.5284 51.942 9.44602 50.6328C6.38021 49.3071 4.15956 47.2853 2.78409 44.5675C1.42519 41.8331 1.09375 38.3447 1.78977 34.1023H14.9148C14.7159 35.66 14.8816 36.9692 15.4119 38.0298C15.9422 39.0904 16.7957 39.8942 17.9723 40.4411C19.1489 40.9879 20.6155 41.2614 22.3722 41.2614C23.8636 41.2614 25.1397 41.0791 26.2003 40.7145C27.2609 40.3499 28.0978 39.8445 28.7109 39.1982C29.3241 38.5518 29.697 37.8144 29.8295 36.9858C29.9621 36.2235 29.8295 35.544 29.4318 34.9474C29.0341 34.3509 28.3132 33.8123 27.2692 33.3317C26.2251 32.8511 24.7917 32.4119 22.9688 32.0142L18.0966 30.9205C13.7713 29.9261 10.5066 28.2855 8.30256 25.9986C6.09849 23.7116 5.3196 20.5795 5.96591 16.6023C6.49621 13.3542 7.83026 10.5204 9.96804 8.10085C12.1224 5.66477 14.8568 3.77557 18.1712 2.43324C21.5021 1.07434 25.1894 0.394884 29.233 0.394884C33.3428 0.394884 36.7815 1.08262 39.549 2.4581C42.3331 3.83357 44.33 5.7642 45.5398 8.25C46.7661 10.7358 47.0975 13.6525 46.5341 17H33.3097Z" fill="url(#paint0_linear_219_3255)"/>
<path d="M33.3097 17L32.3138 16.9095L32.2146 18H33.3097V17ZM32.1165 13.147L31.4093 13.8542L31.4157 13.8604L32.1165 13.147ZM23.7642 12.2273L23.4382 11.2819L23.4331 11.2837L23.7642 12.2273ZM21.5518 13.5945L20.8138 12.9197L20.8085 12.9255L20.8033 12.9314L21.5518 13.5945ZM20.5824 15.608L21.5525 15.8505L21.5614 15.8152L21.5676 15.7793L20.5824 15.608ZM20.6072 17.2486L19.6586 17.5648L19.665 17.5842L19.6722 17.6032L20.6072 17.2486ZM21.6264 18.5661L21.0017 19.3469L21.0079 19.3519L21.0142 19.3568L21.6264 18.5661ZM23.6399 19.6349L23.2847 20.5697L23.2908 20.572L23.6399 19.6349ZM26.6477 20.4801L26.8673 19.5045L26.8573 19.5023L26.6477 20.4801ZM30.625 21.375L30.4055 22.3506L30.4106 22.3517L30.625 21.375ZM37.4609 23.7365L36.9916 24.6196L37.0011 24.6245L37.4609 23.7365ZM41.8359 27.1669L41.0551 27.7916L41.8359 27.1669ZM43.924 31.6165L42.9438 31.8145L42.9458 31.824L43.924 31.6165ZM43.9489 36.9858L42.9632 36.8173L42.9627 36.8198L43.9489 36.9858ZM40.0462 45.4872L39.2949 44.8272L40.0462 45.4872ZM32.0668 50.782L31.7208 49.8437L32.0668 50.782ZM9.44602 50.6328L9.0491 51.5507L9.05509 51.5532L9.44602 50.6328ZM2.78409 44.5675L1.88856 45.0125L1.89185 45.019L2.78409 44.5675ZM1.78977 34.1023V33.1023H0.940466L0.802965 33.9404L1.78977 34.1023ZM14.9148 34.1023L15.9067 34.2289L16.0505 33.1023H14.9148V34.1023ZM15.4119 38.0298L16.3064 37.5826L15.4119 38.0298ZM17.9723 40.4411L17.5508 41.3479H17.5508L17.9723 40.4411ZM28.7109 39.1982L27.9855 38.5099L28.7109 39.1982ZM29.8295 36.9858L28.8442 36.8144L28.8421 36.8278L29.8295 36.9858ZM29.4318 34.9474L28.5998 35.5021L29.4318 34.9474ZM27.2692 33.3317L26.851 34.2401L26.851 34.2401L27.2692 33.3317ZM22.9688 32.0142L22.7497 32.9899L22.7556 32.9912L22.9688 32.0142ZM18.0966 30.9205L17.8725 31.895L17.8776 31.8962L18.0966 30.9205ZM5.96591 16.6023L4.97898 16.4411L4.97886 16.4419L5.96591 16.6023ZM9.96804 8.10085L9.21895 7.43839L9.21865 7.43872L9.96804 8.10085ZM18.1712 2.43324L18.5465 3.36011L18.5489 3.35915L18.1712 2.43324ZM39.549 2.4581L39.1039 3.35359L39.1061 3.35465L39.549 2.4581ZM45.5398 8.25L44.6406 8.6876L44.643 8.69242L45.5398 8.25ZM46.5341 17V18H47.3798L47.5202 17.166L46.5341 17ZM34.3056 17.0905C34.4746 15.231 34.027 13.6222 32.8173 12.4337L31.4157 13.8604C32.0951 14.5279 32.443 15.4878 32.3138 16.9095L34.3056 17.0905ZM32.8236 12.4399C31.5987 11.2151 29.6773 10.7301 27.3438 10.7301V12.7301C29.4846 12.7301 30.745 13.1898 31.4094 13.8541L32.8236 12.4399ZM27.3438 10.7301C25.8487 10.7301 24.5371 10.903 23.4382 11.2819L24.0902 13.1726C24.9137 12.8887 25.9885 12.7301 27.3438 12.7301V10.7301ZM23.4331 11.2837C22.3744 11.6552 21.4819 12.189 20.8138 12.9197L22.2899 14.2692C22.6824 13.8399 23.2648 13.4623 24.0953 13.1709L23.4331 11.2837ZM20.8033 12.9314C20.1668 13.65 19.7616 14.4914 19.5972 15.4366L21.5676 15.7793C21.6684 15.1999 21.9095 14.6989 22.3004 14.2575L20.8033 12.9314ZM19.6122 15.3654C19.4251 16.114 19.4229 16.8578 19.6586 17.5648L21.5559 16.9324C21.4601 16.645 21.4414 16.2951 21.5525 15.8505L19.6122 15.3654ZM19.6722 17.6032C19.9315 18.2867 20.398 18.8639 21.0017 19.3469L22.2511 17.7852C21.8605 17.4727 21.6476 17.1716 21.5422 16.8939L19.6722 17.6032ZM21.0142 19.3568C21.6286 19.8324 22.3949 20.2316 23.2847 20.5697L23.9951 18.7002C23.2277 18.4085 22.6517 18.0951 22.2386 17.7753L21.0142 19.3568ZM23.2908 20.572C24.193 20.9082 25.2446 21.2021 26.4382 21.4579L26.8573 19.5023C25.7308 19.2609 24.7771 18.9915 23.989 18.6979L23.2908 20.572ZM26.4282 21.4557L30.4055 22.3506L30.8445 20.3994L26.8672 19.5045L26.4282 21.4557ZM30.4106 22.3517C33.0673 22.9349 35.2542 23.696 36.9916 24.6195L37.9303 22.8535C35.9888 21.8215 33.6183 21.0083 30.8394 20.3983L30.4106 22.3517ZM37.0011 24.6245C38.7609 25.5358 40.0996 26.5973 41.0551 27.7916L42.6168 26.5422C41.451 25.085 39.8731 23.8595 37.9208 22.8485L37.0011 24.6245ZM41.0551 27.7916C42.0177 28.9949 42.6444 30.3323 42.9438 31.8145L44.9042 31.4185C44.5408 29.6195 43.7754 27.9904 42.6168 26.5422L41.0551 27.7916ZM42.9458 31.824C43.2634 33.3215 43.2769 34.9819 42.9632 36.8173L44.9346 37.1543C45.2837 35.1119 45.2806 33.1928 44.9022 31.409L42.9458 31.824ZM42.9627 36.8198C42.427 40.0028 41.1986 42.6604 39.2949 44.8272L40.7974 46.1472C42.9705 43.6739 44.3439 40.6638 44.935 37.1518L42.9627 36.8198ZM39.2949 44.8272C37.3803 47.0065 34.8669 48.6838 31.7208 49.8437L32.4127 51.7202C35.8291 50.4606 38.6354 48.6081 40.7974 46.1472L39.2949 44.8272ZM31.7208 49.8437C28.5727 51.0044 24.8989 51.5966 20.6818 51.5966V53.5966C25.0821 53.5966 28.9983 52.979 32.4127 51.7202L31.7208 49.8437ZM20.6818 51.5966C16.3676 51.5966 12.7633 50.9553 9.83695 49.7124L9.05509 51.5532C12.2935 52.9287 16.1797 53.5966 20.6818 53.5966V51.5966ZM9.84293 49.715C6.96947 48.4724 4.93584 46.6046 3.67633 44.1159L1.89185 45.019C3.38329 47.966 5.79095 50.1417 9.04911 51.5507L9.84293 49.715ZM3.6796 44.1224C2.44513 41.6384 2.10108 38.3815 2.77658 34.2642L0.802965 33.9404C0.0864205 38.3079 0.405247 42.0278 1.88858 45.0125L3.6796 44.1224ZM1.78977 35.1023H14.9148V33.1023H1.78977V35.1023ZM13.9228 33.9756C13.7069 35.6674 13.8739 37.1899 14.5175 38.477L16.3064 37.5826C15.8893 36.7486 15.725 35.6527 15.9067 34.2289L13.9228 33.9756ZM14.5175 38.477C15.1586 39.7593 16.1897 40.7153 17.5508 41.3479L18.3938 39.5342C17.4017 39.0731 16.7258 38.4215 16.3064 37.5826L14.5175 38.477ZM17.5508 41.3479C18.8975 41.9738 20.5187 42.2614 22.3722 42.2614V40.2614C20.7124 40.2614 19.4003 40.002 18.3938 39.5342L17.5508 41.3479ZM22.3722 42.2614C23.94 42.2614 25.3321 42.0704 26.5254 41.6602L25.8752 39.7688C24.9473 40.0878 23.7873 40.2614 22.3722 40.2614V42.2614ZM26.5254 41.6602C27.6997 41.2565 28.6874 40.6759 29.4364 39.8864L27.9855 38.5099C27.5081 39.0131 26.8221 39.4433 25.8752 39.7688L26.5254 41.6602ZM29.4364 39.8864C30.1793 39.1033 30.6505 38.1841 30.817 37.1438L28.8421 36.8278C28.7434 37.4447 28.4689 38.0004 27.9855 38.5099L29.4364 39.8864ZM30.8148 37.1571C30.9875 36.164 30.8158 35.2206 30.2639 34.3927L28.5998 35.5021C28.8433 35.8675 28.9368 36.2829 28.8443 36.8145L30.8148 37.1571ZM30.2639 34.3927C29.7191 33.5756 28.8075 32.939 27.6873 32.4233L26.851 34.2401C27.8189 34.6856 28.3491 35.1261 28.5998 35.5021L30.2639 34.3927ZM27.6873 32.4233C26.5499 31.8997 25.0376 31.4421 23.1819 31.0372L22.7556 32.9912C24.5458 33.3818 25.9004 33.8024 26.851 34.2401L27.6873 32.4233ZM23.1878 31.0385L18.3156 29.9447L17.8776 31.8962L22.7497 32.9899L23.1878 31.0385ZM18.3206 29.9459C14.1122 28.9784 11.0485 27.4067 9.02259 25.3046L7.58253 26.6925C9.96477 29.1643 13.4304 30.8739 17.8726 31.895L18.3206 29.9459ZM9.02259 25.3046C7.09471 23.3043 6.3422 20.5212 6.95296 16.7627L4.97886 16.4419C4.29701 20.6379 5.10226 24.119 7.58253 26.6925L9.02259 25.3046ZM6.95284 16.7634C7.45339 13.6975 8.70699 11.0384 10.7174 8.76298L9.21865 7.43872C6.95352 10.0024 5.53903 13.0108 4.97898 16.4411L6.95284 16.7634ZM10.7171 8.76332C12.7592 6.45425 15.361 4.65025 18.5465 3.36011L17.7958 1.50637C14.3525 2.90088 11.4856 4.87529 9.21895 7.43839L10.7171 8.76332ZM18.5489 3.35915C21.746 2.05488 25.3029 1.39488 29.233 1.39488V-0.605116C25.0759 -0.605116 21.2583 0.093792 17.7934 1.50732L18.5489 3.35915ZM29.233 1.39488C33.2371 1.39488 36.5126 2.06567 39.1039 3.35359L39.9941 1.5626C37.0504 0.0995712 33.4485 -0.605116 29.233 -0.605116V1.39488ZM39.1061 3.35465C41.7172 4.64468 43.5397 6.42554 44.6406 8.6876L46.4389 7.8124C45.1203 5.10286 42.949 3.02246 39.9919 1.56154L39.1061 3.35465ZM44.643 8.69242C45.7572 10.9509 46.0845 13.6463 45.548 16.834L47.5202 17.166C48.1106 13.6586 47.775 10.5207 46.4366 7.80758L44.643 8.69242ZM46.5341 16H33.3097V18H46.5341V16Z" fill="url(#paint1_linear_219_3255)"/>
<defs>
<linearGradient id="paint0_linear_219_3255" x1="2.76471" y1="3.87013" x2="41.436" y2="45.6495" gradientUnits="userSpaceOnUse">
<stop stop-color="#C72D25"/>
<stop offset="1" stop-color="#583329"/>
</linearGradient>
<linearGradient id="paint1_linear_219_3255" x1="6.45098" y1="-3.85714" x2="38.2301" y2="51.2441" gradientUnits="userSpaceOnUse">
<stop stop-color="#FD5C53"/>
<stop offset="1" stop-color="#4A1A17"/>
</linearGradient>
</defs>
</svg>
