<svg width="99" height="100" viewBox="0 0 99 100" fill="none" xmlns="http://www.w3.org/2000/svg">
<rect x="3" y="2.1189" width="95.8774" height="95.8774" rx="6" fill="#171717"/>
<path d="M3.09795 0L0 3.00683H4.28247L7.2893 0H3.09795Z" fill="#E02819"/>
<path d="M11.5713 0L8.56445 3.00683H12.8469L15.8537 0H11.5713Z" fill="#E02819"/>
<path d="M28.7016 0L25.6948 3.00683H29.8862L32.9841 0H28.7016Z" fill="#E02819"/>
<path d="M20.137 0L17.1301 3.00683H21.4126L24.4194 0H20.137Z" fill="#E02819"/>
<path d="M74.2599 5.19363H54.9432L51.7542 2.09568H35.4443V1.27563H52.1186L55.2166 4.37359H74.2599V5.19363Z" fill="#E02819"/>
<path d="M92.8801 99.4819L95.978 96.4751L91.6956 96.4751L88.6887 99.4819L92.8801 99.4819Z" fill="#E02819"/>
<path d="M84.4065 99.4819L87.4133 96.4751L83.1309 96.4751L80.124 99.4819L84.4065 99.4819Z" fill="#E02819"/>
<path d="M67.2764 99.4819L70.2832 96.4751L66.0919 96.4751L62.9939 99.4819L67.2764 99.4819Z" fill="#E02819"/>
<path d="M75.8413 99.4819L78.8481 96.4751L74.5657 96.4751L71.5588 99.4819L75.8413 99.4819Z" fill="#E02819"/>
<path d="M21.7184 94.2883L41.035 94.2883L44.2241 97.3863L60.5339 97.3863L60.5339 98.2063L43.8597 98.2063L40.7617 95.1083L21.7184 95.1083L21.7184 94.2883Z" fill="#E02819"/>
</svg>
