<svg width="54" height="51" viewBox="0 0 54 51" fill="none" xmlns="http://www.w3.org/2000/svg">
<path d="M16.4716 0.0909076L20.946 35.9858H21.3438L37.75 0.0909076H53.3608L28.1051 51H9.21307L0.860796 0.0909076H16.4716Z" fill="url(#paint0_linear_219_3254)"/>
<path d="M16.4716 0.0909081L17.4639 -0.0327892L17.3547 -0.909092H16.4716V0.0909081ZM20.946 35.9858L19.9537 36.1095L20.0629 36.9858H20.946V35.9858ZM21.3438 35.9858V36.9858H21.9862L22.2533 36.4015L21.3438 35.9858ZM37.75 0.0909081V-0.909092H37.1076L36.8405 -0.324793L37.75 0.0909081ZM53.3608 0.0909081L54.2566 0.53532L54.9732 -0.909092H53.3608V0.0909081ZM28.1051 51V52H28.7253L29.0009 51.4444L28.1051 51ZM9.21307 51L8.22626 51.1619L8.36376 52H9.21307V51ZM0.860795 0.0909081V-0.909092H-0.316636L-0.126012 0.252806L0.860795 0.0909081ZM15.4793 0.214603L19.9537 36.1095L21.9383 35.8621L17.4639 -0.0327892L15.4793 0.214603ZM20.946 36.9858H21.3438V34.9858H20.946V36.9858ZM22.2533 36.4015L38.6595 0.506607L36.8405 -0.324793L20.4342 35.5701L22.2533 36.4015ZM37.75 1.09091H53.3608V-0.909092H37.75V1.09091ZM52.465 -0.353504L27.2093 50.5556L29.0009 51.4444L54.2566 0.53532L52.465 -0.353504ZM28.1051 50H9.21307V52H28.1051V50ZM10.1999 50.8381L1.8476 -0.0709896L-0.126012 0.252806L8.22626 51.1619L10.1999 50.8381ZM0.860795 1.09091H16.4716V-0.909092H0.860795V1.09091Z" fill="url(#paint1_linear_219_3254)"/>
<defs>
<linearGradient id="paint0_linear_219_3254" x1="-2.70588" y1="2.87013" x2="34.8765" y2="51.2481" gradientUnits="userSpaceOnUse">
<stop stop-color="#D59224"/>
<stop offset="1" stop-color="#38271D"/>
</linearGradient>
<linearGradient id="paint1_linear_219_3254" x1="1.68628" y1="-4.85714" x2="30.4827" y2="54.6335" gradientUnits="userSpaceOnUse">
<stop stop-color="#FFBE54"/>
<stop offset="1" stop-color="#4A1A17"/>
</linearGradient>
</defs>
</svg>
