<svg width="44" height="74" viewBox="0 0 44 74" fill="none" xmlns="http://www.w3.org/2000/svg">
<path d="M31.0869 0C23.4625 16.1044 37.8747 30.5356 42.9513 50.0244C48.0469 69.5322 20.4774 80.9783 5.64693 67.4027C-9.18356 53.8271 9.88692 30.9349 9.88692 30.9349C9.88692 30.9349 9.03132 52.5532 18.7852 44.5105C28.5391 36.4678 18.3669 30.0983 17.093 19.9261C15.8191 9.7539 31.0869 0 31.0869 0Z" fill="#FC0001"/>
<path d="M33.4826 70.3688C29.3947 72.8405 24.052 74.2285 19.5458 72.6314C-1.95843 64.9689 2.50972 50.4617 5.22865 46.2027C8.19475 41.5444 8.19474 41.5444 8.19474 41.5444C8.19474 41.5444 7.52929 53.2567 17.5304 55.5383C26.866 57.6488 35.346 46.2027 27.7026 35.1939C20.0782 24.1661 24.3182 14.8495 24.3182 14.8495C24.3182 14.8495 24.3181 24.1851 31.1059 29.2617C37.8938 34.3573 45.8034 52.0208 41.1451 62.193C38.9205 66.9463 36.2776 68.6766 33.4826 70.3688Z" fill="#FB6D01"/>
<path d="M32.7791 36.8861C46.3547 51.7166 39.8521 73.3539 25.4209 73.3539C11.0087 73.3539 4.79134 66.5661 6.06524 58.9417C7.33914 51.3173 7.33913 51.3173 7.33913 51.3173C7.33913 51.3173 8.19474 68.6956 22.6069 63.619C37.0191 58.5044 32.7791 36.8861 32.7791 36.8861Z" fill="#EFA204"/>
<path d="M22.4548 73.7722C9.60172 73.62 8.17572 62.193 8.17572 62.193C8.17572 62.193 13.9748 68.2773 20.8957 67.84C26.3906 67.4977 31.125 63.8281 32.0566 57.953C33.3305 50.0434 27.6835 49.0547 24.2801 43.5408C20.8957 38.0269 26.8279 26.1625 26.8279 26.1625C26.8279 26.1625 24.2801 36.3347 29.794 40.1564C35.3079 43.9781 43.4267 48.8645 40.8218 60.9381C39.2817 68.1061 34.1861 73.9053 22.4548 73.7722Z" fill="#FACF67"/>
<path d="M23.4435 58.6375C1.38794 59.2079 13.7467 40.8599 14.9635 35.4601C16.3705 29.2427 9.44965 19.3557 9.44965 19.3557C9.44965 19.3557 18.7852 26.7139 19.2035 33.92C19.6218 41.1261 14.9635 44.5105 15.667 50.5948C16.3325 56.2418 23.4435 58.6375 23.4435 58.6375Z" fill="#FACF67"/>
<path d="M30.0983 31.5053C35.1939 22.4549 32.2087 13.5566 31.0869 9.88705C29.9652 6.21745 37.4375 20.7627 36.734 25.0027C36.0305 29.2427 28.8243 34.6045 28.8243 34.6045L30.0983 31.5053Z" fill="#FACF67"/>
<path d="M3.72657 30.3074C-1.78733 42.6091 3.30829 46.6399 3.30829 46.6399L3.72657 30.3074Z" fill="#FCE8B3"/>
<path d="M32.57 45.7844C41.6774 57.877 37.8747 69.3231 27.7025 71.8519C17.5303 74.3997 13.2903 62.098 22.3978 62.098C31.5052 62.098 34.4903 60.1966 34.2622 54.6827C34.034 49.1688 32.57 45.7844 32.57 45.7844Z" fill="#FCE8B3"/>
<path d="M28.1018 73.544C20.0401 72.4792 19.2986 65.3682 23.2344 64.4366C29.3757 62.9535 30.2313 68.8857 30.2313 68.8857C30.2313 68.8857 33.4066 69.0948 35.0988 64.0183C35.7832 61.9458 36.1635 58.7135 36.1635 58.7135C36.1635 58.7135 39.7761 66.3379 34.4713 70.8061C30.3074 74.2855 28.1018 73.544 28.1018 73.544Z" fill="#383838"/>
</svg>
