<svg width="362" height="413" viewBox="0 0 362 413" fill="none" xmlns="http://www.w3.org/2000/svg">
<g opacity="0.5">
<path opacity="0.24" d="M87.9937 289.095C119.981 289.095 145.912 263.165 145.912 231.177C145.912 199.19 119.981 173.259 87.9937 173.259C56.0065 173.259 30.0758 199.19 30.0758 231.177C30.0758 263.165 56.0065 289.095 87.9937 289.095Z" fill="url(#paint0_radial_3_226)"/>
<path opacity="0.63" d="M114.955 265.619C138.221 265.619 157.081 246.759 157.081 223.493C157.081 200.228 138.221 181.367 114.955 181.367C91.6899 181.367 72.8296 200.228 72.8296 223.493C72.8296 246.759 91.6899 265.619 114.955 265.619Z" fill="url(#paint1_radial_3_226)"/>
<path opacity="0.24" d="M281.606 219.278C325.51 219.278 361.101 183.687 361.101 139.783C361.101 95.8794 325.51 60.2883 281.606 60.2883C237.702 60.2883 202.111 95.8794 202.111 139.783C202.111 183.687 237.702 219.278 281.606 219.278Z" fill="url(#paint2_radial_3_226)"/>
<path opacity="0.79" d="M299.085 196.116C305.856 196.116 311.346 190.627 311.346 183.856C311.346 177.084 305.856 171.595 299.085 171.595C292.314 171.595 286.825 177.084 286.825 183.856C286.825 190.627 292.314 196.116 299.085 196.116Z" fill="url(#paint3_radial_3_226)"/>
<path opacity="0.79" d="M305.019 192.45C311.79 192.45 317.279 186.961 317.279 180.19C317.279 173.419 311.79 167.93 305.019 167.93C298.248 167.93 292.759 173.419 292.759 180.19C292.759 186.961 298.248 192.45 305.019 192.45Z" fill="url(#paint4_radial_3_226)"/>
<path opacity="0.21" d="M273.953 283.577C308.341 283.577 336.219 255.7 336.219 221.311C336.219 186.922 308.341 159.045 273.953 159.045C239.564 159.045 211.686 186.922 211.686 221.311C211.686 255.7 239.564 283.577 273.953 283.577Z" fill="url(#paint5_radial_3_226)"/>
<path opacity="0.21" d="M107.397 244.073C141.785 244.073 169.663 216.196 169.663 181.807C169.663 147.418 141.785 119.541 107.397 119.541C73.0079 119.541 45.1303 147.418 45.1303 181.807C45.1303 216.196 73.0079 244.073 107.397 244.073Z" fill="url(#paint6_radial_3_226)"/>
<path opacity="0.57" d="M129.986 216.358C145.145 216.358 157.434 204.069 157.434 188.91C157.434 173.751 145.145 161.462 129.986 161.462C114.827 161.462 102.538 173.751 102.538 188.91C102.538 204.069 114.827 216.358 129.986 216.358Z" fill="url(#paint7_radial_3_226)"/>
<path opacity="0.35" d="M102.318 183.659C124.903 183.659 143.212 165.351 143.212 142.766C143.212 120.181 124.903 101.872 102.318 101.872C79.7334 101.872 61.4247 120.181 61.4247 142.766C61.4247 165.351 79.7334 183.659 102.318 183.659Z" fill="url(#paint8_radial_3_226)"/>
<path opacity="0.24" d="M148.831 200.166C180.819 200.166 206.749 174.235 206.749 142.248C206.749 110.261 180.819 84.33 148.831 84.33C116.844 84.33 90.9134 110.261 90.9134 142.248C90.9134 174.235 116.844 200.166 148.831 200.166Z" fill="url(#paint9_radial_3_226)"/>
<path opacity="0.24" d="M236.999 268.821C268.987 268.821 294.917 242.891 294.917 210.903C294.917 178.916 268.987 152.985 236.999 152.985C205.012 152.985 179.082 178.916 179.082 210.903C179.082 242.891 205.012 268.821 236.999 268.821Z" fill="url(#paint10_radial_3_226)"/>
<path opacity="0.24" d="M186.774 217.128C218.761 217.128 244.692 191.197 244.692 159.21C244.692 127.222 218.761 101.292 186.774 101.292C154.787 101.292 128.856 127.222 128.856 159.21C128.856 191.197 154.787 217.128 186.774 217.128Z" fill="url(#paint11_radial_3_226)"/>
<path opacity="0.04" d="M218.272 186.022C269.64 186.022 311.283 144.379 311.283 93.0109C311.283 41.6424 269.64 0 218.272 0C166.903 0 125.261 41.6424 125.261 93.0109C125.261 144.379 166.903 186.022 218.272 186.022Z" fill="url(#paint12_radial_3_226)"/>
<path opacity="0.04" d="M43.0109 212.685C94.3795 212.685 136.022 171.043 136.022 119.674C136.022 68.3055 94.3795 26.6631 43.0109 26.6631C-8.35758 26.6631 -50 68.3055 -50 119.674C-50 171.043 -8.35758 212.685 43.0109 212.685Z" fill="url(#paint13_radial_3_226)"/>
<path opacity="0.09" d="M238.554 402.325C282.02 402.325 317.256 367.089 317.256 323.623C317.256 280.157 282.02 244.921 238.554 244.921C195.088 244.921 159.851 280.157 159.851 323.623C159.851 367.089 195.088 402.325 238.554 402.325Z" fill="url(#paint14_radial_3_226)"/>
<path opacity="0.09" d="M189.929 372.334C233.395 372.334 268.631 337.098 268.631 293.632C268.631 250.166 233.395 214.93 189.929 214.93C146.463 214.93 111.227 250.166 111.227 293.632C111.227 337.098 146.463 372.334 189.929 372.334Z" fill="url(#paint15_radial_3_226)"/>
<path opacity="0.09" d="M109.838 413C161.991 413 204.269 370.722 204.269 318.568C204.269 266.415 161.991 224.137 109.838 224.137C57.6845 224.137 15.406 266.415 15.406 318.568C15.406 370.722 57.6845 413 109.838 413Z" fill="url(#paint16_radial_3_226)"/>
<path opacity="0.09" d="M71.3617 394.052C129.332 394.052 176.327 347.058 176.327 289.087C176.327 231.117 129.332 184.122 71.3617 184.122C13.3912 184.122 -33.6033 231.117 -33.6033 289.087C-33.6033 347.058 13.3912 394.052 71.3617 394.052Z" fill="url(#paint17_radial_3_226)"/>
<path opacity="0.63" d="M78.7083 180.473C95.4974 180.473 109.108 166.862 109.108 150.073C109.108 133.284 95.4974 119.674 78.7083 119.674C61.9193 119.674 48.3091 133.284 48.3091 150.073C48.3091 166.862 61.9193 180.473 78.7083 180.473Z" fill="url(#paint18_radial_3_226)"/>
<path opacity="0.51" d="M40.625 233.956C55.7842 233.956 68.0731 221.667 68.0731 206.508C68.0731 191.349 55.7842 179.06 40.625 179.06C25.4659 179.06 13.177 191.349 13.177 206.508C13.177 221.667 25.4659 233.956 40.625 233.956Z" fill="url(#paint19_radial_3_226)"/>
<path opacity="0.98" d="M8.49094 196.218C7.08596 199.899 2.96522 201.743 -0.715969 200.346C-4.39716 198.941 -6.24168 194.821 -4.83671 191.139C-3.43173 187.458 0.689006 185.614 4.3702 187.019C8.05139 188.408 9.89591 192.537 8.49094 196.218Z" fill="url(#paint20_radial_3_226)"/>
<path opacity="0.98" d="M242.808 195.747C241.403 199.428 237.282 201.273 233.601 199.868C229.92 198.463 228.075 194.342 229.48 190.661C230.885 186.979 235.006 185.135 238.687 186.532C242.368 187.945 244.213 192.066 242.808 195.747Z" fill="url(#paint21_radial_3_226)"/>
<path opacity="0.98" d="M330.811 259.826C334.752 259.826 337.946 256.632 337.946 252.692C337.946 248.751 334.752 245.557 330.811 245.557C326.871 245.557 323.676 248.751 323.676 252.692C323.676 256.632 326.871 259.826 330.811 259.826Z" fill="url(#paint22_radial_3_226)"/>
<path d="M97.0515 180.433C95.6466 184.115 91.5258 185.959 87.8446 184.554C84.1634 183.149 82.3189 179.028 83.7239 175.347C85.1289 171.666 89.2496 169.822 92.9308 171.226C96.6041 172.624 98.4487 176.752 97.0515 180.433Z" fill="url(#paint23_radial_3_226)"/>
<path d="M343.016 201.43C346.957 201.43 350.151 198.235 350.151 194.295C350.151 190.354 346.957 187.16 343.016 187.16C339.076 187.16 335.882 190.354 335.882 194.295C335.882 198.235 339.076 201.43 343.016 201.43Z" fill="url(#paint24_radial_3_226)"/>
<path opacity="0.98" d="M193.783 97.689C192.378 101.37 188.257 103.215 184.576 101.81C180.895 100.405 179.05 96.284 180.447 92.6028C181.852 88.9216 185.973 87.0771 189.654 88.4821C193.343 89.8792 195.188 94 193.783 97.689Z" fill="url(#paint25_radial_3_226)"/>
<path opacity="0.51" d="M208.092 211.366C215.656 211.366 221.788 205.234 221.788 197.67C221.788 190.105 215.656 183.973 208.092 183.973C200.527 183.973 194.395 190.105 194.395 197.67C194.395 205.234 200.527 211.366 208.092 211.366Z" fill="url(#paint26_radial_3_226)"/>
<path opacity="0.51" d="M207.864 153.229C215.428 153.229 221.561 147.097 221.561 139.532C221.561 131.968 215.428 125.836 207.864 125.836C200.3 125.836 194.168 131.968 194.168 139.532C194.168 147.097 200.3 153.229 207.864 153.229Z" fill="url(#paint27_radial_3_226)"/>
<path opacity="0.51" d="M265.334 236.044C280.494 236.044 292.782 223.755 292.782 208.596C292.782 193.437 280.494 181.148 265.334 181.148C250.175 181.148 237.886 193.437 237.886 208.596C237.886 223.755 250.175 236.044 265.334 236.044Z" fill="url(#paint28_radial_3_226)"/>
</g>
<defs>
<radialGradient id="paint0_radial_3_226" cx="0" cy="0" r="1" gradientUnits="userSpaceOnUse" gradientTransform="translate(87.9925 231.174) scale(57.9141 57.9141)">
<stop offset="0.1581" stop-color="#FCC03D"/>
<stop offset="0.3488" stop-color="#E9C147"/>
<stop offset="0.481" stop-color="#E2C24A"/>
<stop offset="0.5118" stop-color="#BBA13D" stop-opacity="0.9407"/>
<stop offset="0.5523" stop-color="#907B2F" stop-opacity="0.8626"/>
<stop offset="0.5959" stop-color="#695A22" stop-opacity="0.7786"/>
<stop offset="0.6421" stop-color="#483E18" stop-opacity="0.6896"/>
<stop offset="0.6916" stop-color="#2E270F" stop-opacity="0.5942"/>
<stop offset="0.7456" stop-color="#191608" stop-opacity="0.4902"/>
<stop offset="0.8065" stop-color="#0B0904" stop-opacity="0.3729"/>
<stop offset="0.8799" stop-color="#030201" stop-opacity="0.2314"/>
<stop offset="1" stop-opacity="0"/>
</radialGradient>
<radialGradient id="paint1_radial_3_226" cx="0" cy="0" r="1" gradientUnits="userSpaceOnUse" gradientTransform="translate(114.956 223.493) scale(42.1278)">
<stop offset="0.1581" stop-color="#FCC03D"/>
<stop offset="0.3488" stop-color="#E9C147"/>
<stop offset="0.481" stop-color="#E2C24A"/>
<stop offset="0.5118" stop-color="#BBA13D" stop-opacity="0.9407"/>
<stop offset="0.5523" stop-color="#907B2F" stop-opacity="0.8626"/>
<stop offset="0.5959" stop-color="#695A22" stop-opacity="0.7786"/>
<stop offset="0.6421" stop-color="#483E18" stop-opacity="0.6896"/>
<stop offset="0.6916" stop-color="#2E270F" stop-opacity="0.5942"/>
<stop offset="0.7456" stop-color="#191608" stop-opacity="0.4902"/>
<stop offset="0.8065" stop-color="#0B0904" stop-opacity="0.3729"/>
<stop offset="0.8799" stop-color="#030201" stop-opacity="0.2314"/>
<stop offset="1" stop-opacity="0"/>
</radialGradient>
<radialGradient id="paint2_radial_3_226" cx="0" cy="0" r="1" gradientUnits="userSpaceOnUse" gradientTransform="translate(281.604 139.784) scale(79.4917)">
<stop offset="0.1581" stop-color="#FCC03D"/>
<stop offset="0.3488" stop-color="#E9C147"/>
<stop offset="0.481" stop-color="#E2C24A"/>
<stop offset="0.5118" stop-color="#BBA13D" stop-opacity="0.9407"/>
<stop offset="0.5523" stop-color="#907B2F" stop-opacity="0.8626"/>
<stop offset="0.5959" stop-color="#695A22" stop-opacity="0.7786"/>
<stop offset="0.6421" stop-color="#483E18" stop-opacity="0.6896"/>
<stop offset="0.6916" stop-color="#2E270F" stop-opacity="0.5942"/>
<stop offset="0.7456" stop-color="#191608" stop-opacity="0.4902"/>
<stop offset="0.8065" stop-color="#0B0904" stop-opacity="0.3729"/>
<stop offset="0.8799" stop-color="#030201" stop-opacity="0.2314"/>
<stop offset="1" stop-opacity="0"/>
</radialGradient>
<radialGradient id="paint3_radial_3_226" cx="0" cy="0" r="1" gradientUnits="userSpaceOnUse" gradientTransform="translate(299.085 183.853) scale(12.2631 12.2631)">
<stop offset="0.1581" stop-color="#FCC03D"/>
<stop offset="0.3488" stop-color="#E9C147"/>
<stop offset="0.481" stop-color="#E2C24A"/>
<stop offset="0.5118" stop-color="#BBA13D" stop-opacity="0.9407"/>
<stop offset="0.5523" stop-color="#907B2F" stop-opacity="0.8626"/>
<stop offset="0.5959" stop-color="#695A22" stop-opacity="0.7786"/>
<stop offset="0.6421" stop-color="#483E18" stop-opacity="0.6896"/>
<stop offset="0.6916" stop-color="#2E270F" stop-opacity="0.5942"/>
<stop offset="0.7456" stop-color="#191608" stop-opacity="0.4902"/>
<stop offset="0.8065" stop-color="#0B0904" stop-opacity="0.3729"/>
<stop offset="0.8799" stop-color="#030201" stop-opacity="0.2314"/>
<stop offset="1" stop-opacity="0"/>
</radialGradient>
<radialGradient id="paint4_radial_3_226" cx="0" cy="0" r="1" gradientUnits="userSpaceOnUse" gradientTransform="translate(305.018 180.189) scale(12.263 12.263)">
<stop offset="0.1581" stop-color="#FCC03D"/>
<stop offset="0.3488" stop-color="#E9C147"/>
<stop offset="0.481" stop-color="#E2C24A"/>
<stop offset="0.5118" stop-color="#BBA13D" stop-opacity="0.9407"/>
<stop offset="0.5523" stop-color="#907B2F" stop-opacity="0.8626"/>
<stop offset="0.5959" stop-color="#695A22" stop-opacity="0.7786"/>
<stop offset="0.6421" stop-color="#483E18" stop-opacity="0.6896"/>
<stop offset="0.6916" stop-color="#2E270F" stop-opacity="0.5942"/>
<stop offset="0.7456" stop-color="#191608" stop-opacity="0.4902"/>
<stop offset="0.8065" stop-color="#0B0904" stop-opacity="0.3729"/>
<stop offset="0.8799" stop-color="#030201" stop-opacity="0.2314"/>
<stop offset="1" stop-opacity="0"/>
</radialGradient>
<radialGradient id="paint5_radial_3_226" cx="0" cy="0" r="1" gradientUnits="userSpaceOnUse" gradientTransform="translate(273.951 221.311) rotate(20.8726) scale(62.2626 62.2626)">
<stop offset="0.1581" stop-color="#FCC03D"/>
<stop offset="0.3488" stop-color="#E9C147"/>
<stop offset="0.481" stop-color="#E2C24A"/>
<stop offset="0.5118" stop-color="#BBA13D" stop-opacity="0.9407"/>
<stop offset="0.5523" stop-color="#907B2F" stop-opacity="0.8626"/>
<stop offset="0.5959" stop-color="#695A22" stop-opacity="0.7786"/>
<stop offset="0.6421" stop-color="#483E18" stop-opacity="0.6896"/>
<stop offset="0.6916" stop-color="#2E270F" stop-opacity="0.5942"/>
<stop offset="0.7456" stop-color="#191608" stop-opacity="0.4902"/>
<stop offset="0.8065" stop-color="#0B0904" stop-opacity="0.3729"/>
<stop offset="0.8799" stop-color="#030201" stop-opacity="0.2314"/>
<stop offset="1" stop-opacity="0"/>
</radialGradient>
<radialGradient id="paint6_radial_3_226" cx="0" cy="0" r="1" gradientUnits="userSpaceOnUse" gradientTransform="translate(107.393 181.804) rotate(20.8726) scale(62.2626)">
<stop offset="0.1581" stop-color="#FCC03D"/>
<stop offset="0.3488" stop-color="#E9C147"/>
<stop offset="0.481" stop-color="#E2C24A"/>
<stop offset="0.5118" stop-color="#BBA13D" stop-opacity="0.9407"/>
<stop offset="0.5523" stop-color="#907B2F" stop-opacity="0.8626"/>
<stop offset="0.5959" stop-color="#695A22" stop-opacity="0.7786"/>
<stop offset="0.6421" stop-color="#483E18" stop-opacity="0.6896"/>
<stop offset="0.6916" stop-color="#2E270F" stop-opacity="0.5942"/>
<stop offset="0.7456" stop-color="#191608" stop-opacity="0.4902"/>
<stop offset="0.8065" stop-color="#0B0904" stop-opacity="0.3729"/>
<stop offset="0.8799" stop-color="#030201" stop-opacity="0.2314"/>
<stop offset="1" stop-opacity="0"/>
</radialGradient>
<radialGradient id="paint7_radial_3_226" cx="0" cy="0" r="1" gradientUnits="userSpaceOnUse" gradientTransform="translate(129.985 188.913) rotate(20.8726) scale(27.4499)">
<stop offset="0.1581" stop-color="#FCC03D"/>
<stop offset="0.3488" stop-color="#E9C147"/>
<stop offset="0.481" stop-color="#E2C24A"/>
<stop offset="0.5118" stop-color="#BBA13D" stop-opacity="0.9407"/>
<stop offset="0.5523" stop-color="#907B2F" stop-opacity="0.8626"/>
<stop offset="0.5959" stop-color="#695A22" stop-opacity="0.7786"/>
<stop offset="0.6421" stop-color="#483E18" stop-opacity="0.6896"/>
<stop offset="0.6916" stop-color="#2E270F" stop-opacity="0.5942"/>
<stop offset="0.7456" stop-color="#191608" stop-opacity="0.4902"/>
<stop offset="0.8065" stop-color="#0B0904" stop-opacity="0.3729"/>
<stop offset="0.8799" stop-color="#030201" stop-opacity="0.2314"/>
<stop offset="1" stop-opacity="0"/>
</radialGradient>
<radialGradient id="paint8_radial_3_226" cx="0" cy="0" r="1" gradientUnits="userSpaceOnUse" gradientTransform="translate(102.32 142.769) scale(40.8937)">
<stop offset="0.1581" stop-color="#FCC03D"/>
<stop offset="0.3488" stop-color="#E9C147"/>
<stop offset="0.481" stop-color="#E2C24A"/>
<stop offset="0.5118" stop-color="#BBA13D" stop-opacity="0.9407"/>
<stop offset="0.5523" stop-color="#907B2F" stop-opacity="0.8626"/>
<stop offset="0.5959" stop-color="#695A22" stop-opacity="0.7786"/>
<stop offset="0.6421" stop-color="#483E18" stop-opacity="0.6896"/>
<stop offset="0.6916" stop-color="#2E270F" stop-opacity="0.5942"/>
<stop offset="0.7456" stop-color="#191608" stop-opacity="0.4902"/>
<stop offset="0.8065" stop-color="#0B0904" stop-opacity="0.3729"/>
<stop offset="0.8799" stop-color="#030201" stop-opacity="0.2314"/>
<stop offset="1" stop-opacity="0"/>
</radialGradient>
<radialGradient id="paint9_radial_3_226" cx="0" cy="0" r="1" gradientUnits="userSpaceOnUse" gradientTransform="translate(148.831 142.252) scale(57.9142)">
<stop offset="0.1581" stop-color="#FCC03D"/>
<stop offset="0.3488" stop-color="#E9C147"/>
<stop offset="0.481" stop-color="#E2C24A"/>
<stop offset="0.5118" stop-color="#BBA13D" stop-opacity="0.9407"/>
<stop offset="0.5523" stop-color="#907B2F" stop-opacity="0.8626"/>
<stop offset="0.5959" stop-color="#695A22" stop-opacity="0.7786"/>
<stop offset="0.6421" stop-color="#483E18" stop-opacity="0.6896"/>
<stop offset="0.6916" stop-color="#2E270F" stop-opacity="0.5942"/>
<stop offset="0.7456" stop-color="#191608" stop-opacity="0.4902"/>
<stop offset="0.8065" stop-color="#0B0904" stop-opacity="0.3729"/>
<stop offset="0.8799" stop-color="#030201" stop-opacity="0.2314"/>
<stop offset="1" stop-opacity="0"/>
</radialGradient>
<radialGradient id="paint10_radial_3_226" cx="0" cy="0" r="1" gradientUnits="userSpaceOnUse" gradientTransform="translate(236.998 210.906) scale(57.9141 57.9141)">
<stop offset="0.1581" stop-color="#FCC03D"/>
<stop offset="0.3488" stop-color="#E9C147"/>
<stop offset="0.481" stop-color="#E2C24A"/>
<stop offset="0.5118" stop-color="#BBA13D" stop-opacity="0.9407"/>
<stop offset="0.5523" stop-color="#907B2F" stop-opacity="0.8626"/>
<stop offset="0.5959" stop-color="#695A22" stop-opacity="0.7786"/>
<stop offset="0.6421" stop-color="#483E18" stop-opacity="0.6896"/>
<stop offset="0.6916" stop-color="#2E270F" stop-opacity="0.5942"/>
<stop offset="0.7456" stop-color="#191608" stop-opacity="0.4902"/>
<stop offset="0.8065" stop-color="#0B0904" stop-opacity="0.3729"/>
<stop offset="0.8799" stop-color="#030201" stop-opacity="0.2314"/>
<stop offset="1" stop-opacity="0"/>
</radialGradient>
<radialGradient id="paint11_radial_3_226" cx="0" cy="0" r="1" gradientUnits="userSpaceOnUse" gradientTransform="translate(186.772 159.211) scale(57.9141 57.9141)">
<stop offset="0.1581" stop-color="#FCC03D"/>
<stop offset="0.3488" stop-color="#E9C147"/>
<stop offset="0.481" stop-color="#E2C24A"/>
<stop offset="0.5118" stop-color="#BBA13D" stop-opacity="0.9407"/>
<stop offset="0.5523" stop-color="#907B2F" stop-opacity="0.8626"/>
<stop offset="0.5959" stop-color="#695A22" stop-opacity="0.7786"/>
<stop offset="0.6421" stop-color="#483E18" stop-opacity="0.6896"/>
<stop offset="0.6916" stop-color="#2E270F" stop-opacity="0.5942"/>
<stop offset="0.7456" stop-color="#191608" stop-opacity="0.4902"/>
<stop offset="0.8065" stop-color="#0B0904" stop-opacity="0.3729"/>
<stop offset="0.8799" stop-color="#030201" stop-opacity="0.2314"/>
<stop offset="1" stop-opacity="0"/>
</radialGradient>
<radialGradient id="paint12_radial_3_226" cx="0" cy="0" r="1" gradientUnits="userSpaceOnUse" gradientTransform="translate(218.268 93.0105) scale(93.0137 93.0137)">
<stop offset="0.1581" stop-color="#FCC03D"/>
<stop offset="0.3488" stop-color="#E9C147"/>
<stop offset="0.481" stop-color="#E2C24A"/>
<stop offset="0.5118" stop-color="#BBA13D" stop-opacity="0.9407"/>
<stop offset="0.5523" stop-color="#907B2F" stop-opacity="0.8626"/>
<stop offset="0.5959" stop-color="#695A22" stop-opacity="0.7786"/>
<stop offset="0.6421" stop-color="#483E18" stop-opacity="0.6896"/>
<stop offset="0.6916" stop-color="#2E270F" stop-opacity="0.5942"/>
<stop offset="0.7456" stop-color="#191608" stop-opacity="0.4902"/>
<stop offset="0.8065" stop-color="#0B0904" stop-opacity="0.3729"/>
<stop offset="0.8799" stop-color="#030201" stop-opacity="0.2314"/>
<stop offset="1" stop-opacity="0"/>
</radialGradient>
<radialGradient id="paint13_radial_3_226" cx="0" cy="0" r="1" gradientUnits="userSpaceOnUse" gradientTransform="translate(43.0073 119.671) scale(93.0137)">
<stop offset="0.1581" stop-color="#FCC03D"/>
<stop offset="0.3488" stop-color="#E9C147"/>
<stop offset="0.481" stop-color="#E2C24A"/>
<stop offset="0.5118" stop-color="#BBA13D" stop-opacity="0.9407"/>
<stop offset="0.5523" stop-color="#907B2F" stop-opacity="0.8626"/>
<stop offset="0.5959" stop-color="#695A22" stop-opacity="0.7786"/>
<stop offset="0.6421" stop-color="#483E18" stop-opacity="0.6896"/>
<stop offset="0.6916" stop-color="#2E270F" stop-opacity="0.5942"/>
<stop offset="0.7456" stop-color="#191608" stop-opacity="0.4902"/>
<stop offset="0.8065" stop-color="#0B0904" stop-opacity="0.3729"/>
<stop offset="0.8799" stop-color="#030201" stop-opacity="0.2314"/>
<stop offset="1" stop-opacity="0"/>
</radialGradient>
<radialGradient id="paint14_radial_3_226" cx="0" cy="0" r="1" gradientUnits="userSpaceOnUse" gradientTransform="translate(238.551 323.623) scale(78.7015 78.7015)">
<stop offset="0.1581" stop-color="#FCC03D"/>
<stop offset="0.3488" stop-color="#E9C147"/>
<stop offset="0.481" stop-color="#E2C24A"/>
<stop offset="0.5118" stop-color="#BBA13D" stop-opacity="0.9407"/>
<stop offset="0.5523" stop-color="#907B2F" stop-opacity="0.8626"/>
<stop offset="0.5959" stop-color="#695A22" stop-opacity="0.7786"/>
<stop offset="0.6421" stop-color="#483E18" stop-opacity="0.6896"/>
<stop offset="0.6916" stop-color="#2E270F" stop-opacity="0.5942"/>
<stop offset="0.7456" stop-color="#191608" stop-opacity="0.4902"/>
<stop offset="0.8065" stop-color="#0B0904" stop-opacity="0.3729"/>
<stop offset="0.8799" stop-color="#030201" stop-opacity="0.2314"/>
<stop offset="1" stop-opacity="0"/>
</radialGradient>
<radialGradient id="paint15_radial_3_226" cx="0" cy="0" r="1" gradientUnits="userSpaceOnUse" gradientTransform="translate(189.926 293.629) scale(78.7016 78.7015)">
<stop offset="0.1581" stop-color="#FCC03D"/>
<stop offset="0.3488" stop-color="#E9C147"/>
<stop offset="0.481" stop-color="#E2C24A"/>
<stop offset="0.5118" stop-color="#BBA13D" stop-opacity="0.9407"/>
<stop offset="0.5523" stop-color="#907B2F" stop-opacity="0.8626"/>
<stop offset="0.5959" stop-color="#695A22" stop-opacity="0.7786"/>
<stop offset="0.6421" stop-color="#483E18" stop-opacity="0.6896"/>
<stop offset="0.6916" stop-color="#2E270F" stop-opacity="0.5942"/>
<stop offset="0.7456" stop-color="#191608" stop-opacity="0.4902"/>
<stop offset="0.8065" stop-color="#0B0904" stop-opacity="0.3729"/>
<stop offset="0.8799" stop-color="#030201" stop-opacity="0.2314"/>
<stop offset="1" stop-opacity="0"/>
</radialGradient>
<radialGradient id="paint16_radial_3_226" cx="0" cy="0" r="1" gradientUnits="userSpaceOnUse" gradientTransform="translate(109.835 318.57) scale(94.4319 94.4319)">
<stop offset="0.1581" stop-color="#FCC03D"/>
<stop offset="0.3488" stop-color="#E9C147"/>
<stop offset="0.481" stop-color="#E2C24A"/>
<stop offset="0.5118" stop-color="#BBA13D" stop-opacity="0.9407"/>
<stop offset="0.5523" stop-color="#907B2F" stop-opacity="0.8626"/>
<stop offset="0.5959" stop-color="#695A22" stop-opacity="0.7786"/>
<stop offset="0.6421" stop-color="#483E18" stop-opacity="0.6896"/>
<stop offset="0.6916" stop-color="#2E270F" stop-opacity="0.5942"/>
<stop offset="0.7456" stop-color="#191608" stop-opacity="0.4902"/>
<stop offset="0.8065" stop-color="#0B0904" stop-opacity="0.3729"/>
<stop offset="0.8799" stop-color="#030201" stop-opacity="0.2314"/>
<stop offset="1" stop-opacity="0"/>
</radialGradient>
<radialGradient id="paint17_radial_3_226" cx="0" cy="0" r="1" gradientUnits="userSpaceOnUse" gradientTransform="translate(71.3617 289.088) scale(104.966 104.966)">
<stop offset="0.1581" stop-color="#FCC03D"/>
<stop offset="0.3488" stop-color="#E9C147"/>
<stop offset="0.481" stop-color="#E2C24A"/>
<stop offset="0.5118" stop-color="#BBA13D" stop-opacity="0.9407"/>
<stop offset="0.5523" stop-color="#907B2F" stop-opacity="0.8626"/>
<stop offset="0.5959" stop-color="#695A22" stop-opacity="0.7786"/>
<stop offset="0.6421" stop-color="#483E18" stop-opacity="0.6896"/>
<stop offset="0.6916" stop-color="#2E270F" stop-opacity="0.5942"/>
<stop offset="0.7456" stop-color="#191608" stop-opacity="0.4902"/>
<stop offset="0.8065" stop-color="#0B0904" stop-opacity="0.3729"/>
<stop offset="0.8799" stop-color="#030201" stop-opacity="0.2314"/>
<stop offset="1" stop-opacity="0"/>
</radialGradient>
<radialGradient id="paint18_radial_3_226" cx="0" cy="0" r="1" gradientUnits="userSpaceOnUse" gradientTransform="translate(78.7081 150.074) scale(30.4015 30.4015)">
<stop offset="0.1581" stop-color="#FCC03D"/>
<stop offset="0.3488" stop-color="#E9C147"/>
<stop offset="0.481" stop-color="#E2C24A"/>
<stop offset="0.5118" stop-color="#BBA13D" stop-opacity="0.9407"/>
<stop offset="0.5523" stop-color="#907B2F" stop-opacity="0.8626"/>
<stop offset="0.5959" stop-color="#695A22" stop-opacity="0.7786"/>
<stop offset="0.6421" stop-color="#483E18" stop-opacity="0.6896"/>
<stop offset="0.6916" stop-color="#2E270F" stop-opacity="0.5942"/>
<stop offset="0.7456" stop-color="#191608" stop-opacity="0.4902"/>
<stop offset="0.8065" stop-color="#0B0904" stop-opacity="0.3729"/>
<stop offset="0.8799" stop-color="#030201" stop-opacity="0.2314"/>
<stop offset="1" stop-opacity="0"/>
</radialGradient>
<radialGradient id="paint19_radial_3_226" cx="0" cy="0" r="1" gradientUnits="userSpaceOnUse" gradientTransform="translate(40.6258 206.504) rotate(20.8726) scale(27.4499)">
<stop offset="0.3697" stop-color="#FCC03D"/>
<stop offset="0.4198" stop-color="#E9C147"/>
<stop offset="0.4545" stop-color="#E2C24A"/>
<stop offset="0.4599" stop-color="#E1C248" stop-opacity="0.9902"/>
<stop offset="0.534" stop-color="#D5C52E" stop-opacity="0.8543"/>
<stop offset="0.6152" stop-color="#CCC719" stop-opacity="0.7055"/>
<stop offset="0.7072" stop-color="#C5C90B" stop-opacity="0.5367"/>
<stop offset="0.8182" stop-color="#C1CA03" stop-opacity="0.3332"/>
<stop offset="1" stop-color="#C0CA00" stop-opacity="0"/>
</radialGradient>
<radialGradient id="paint20_radial_3_226" cx="0" cy="0" r="1" gradientUnits="userSpaceOnUse" gradientTransform="translate(1.82735 193.673) rotate(20.8726) scale(7.13542 7.13543)">
<stop offset="0.3697" stop-color="#FCC03D"/>
<stop offset="0.4198" stop-color="#E9C147"/>
<stop offset="0.4545" stop-color="#E2C24A"/>
<stop offset="0.4599" stop-color="#E1C248" stop-opacity="0.9902"/>
<stop offset="0.534" stop-color="#D5C52E" stop-opacity="0.8543"/>
<stop offset="0.6152" stop-color="#CCC719" stop-opacity="0.7055"/>
<stop offset="0.7072" stop-color="#C5C90B" stop-opacity="0.5367"/>
<stop offset="0.8182" stop-color="#C1CA03" stop-opacity="0.3332"/>
<stop offset="1" stop-color="#C0CA00" stop-opacity="0"/>
</radialGradient>
<radialGradient id="paint21_radial_3_226" cx="0" cy="0" r="1" gradientUnits="userSpaceOnUse" gradientTransform="translate(236.14 193.207) rotate(20.8726) scale(7.13542 7.13542)">
<stop offset="0.3697" stop-color="#FCC03D"/>
<stop offset="0.4198" stop-color="#E9C147"/>
<stop offset="0.4545" stop-color="#E2C24A"/>
<stop offset="0.4599" stop-color="#E1C248" stop-opacity="0.9902"/>
<stop offset="0.534" stop-color="#D5C52E" stop-opacity="0.8543"/>
<stop offset="0.6152" stop-color="#CCC719" stop-opacity="0.7055"/>
<stop offset="0.7072" stop-color="#C5C90B" stop-opacity="0.5367"/>
<stop offset="0.8182" stop-color="#C1CA03" stop-opacity="0.3332"/>
<stop offset="1" stop-color="#C0CA00" stop-opacity="0"/>
</radialGradient>
<radialGradient id="paint22_radial_3_226" cx="0" cy="0" r="1" gradientUnits="userSpaceOnUse" gradientTransform="translate(330.811 252.695) rotate(20.8725) scale(7.13543 7.13542)">
<stop offset="0.3697" stop-color="#FCC03D"/>
<stop offset="0.4198" stop-color="#E9C147"/>
<stop offset="0.4545" stop-color="#E2C24A"/>
<stop offset="0.4599" stop-color="#E1C248" stop-opacity="0.9902"/>
<stop offset="0.534" stop-color="#D5C52E" stop-opacity="0.8543"/>
<stop offset="0.6152" stop-color="#CCC719" stop-opacity="0.7055"/>
<stop offset="0.7072" stop-color="#C5C90B" stop-opacity="0.5367"/>
<stop offset="0.8182" stop-color="#C1CA03" stop-opacity="0.3332"/>
<stop offset="1" stop-color="#C0CA00" stop-opacity="0"/>
</radialGradient>
<radialGradient id="paint23_radial_3_226" cx="0" cy="0" r="1" gradientUnits="userSpaceOnUse" gradientTransform="translate(90.3812 177.89) rotate(20.8726) scale(7.13542)">
<stop offset="0.3697" stop-color="#FCC03D"/>
<stop offset="0.4198" stop-color="#E9C147"/>
<stop offset="0.4545" stop-color="#E2C24A"/>
<stop offset="0.4599" stop-color="#E1C248" stop-opacity="0.9902"/>
<stop offset="0.534" stop-color="#D5C52E" stop-opacity="0.8543"/>
<stop offset="0.6152" stop-color="#CCC719" stop-opacity="0.7055"/>
<stop offset="0.7072" stop-color="#C5C90B" stop-opacity="0.5367"/>
<stop offset="0.8182" stop-color="#C1CA03" stop-opacity="0.3332"/>
<stop offset="1" stop-color="#C0CA00" stop-opacity="0"/>
</radialGradient>
<radialGradient id="paint24_radial_3_226" cx="0" cy="0" r="1" gradientUnits="userSpaceOnUse" gradientTransform="translate(343.02 194.296) rotate(20.8726) scale(7.13542)">
<stop offset="0.3697" stop-color="#FCC03D"/>
<stop offset="0.4198" stop-color="#E9C147"/>
<stop offset="0.4545" stop-color="#E2C24A"/>
<stop offset="0.4599" stop-color="#E1C248" stop-opacity="0.9902"/>
<stop offset="0.534" stop-color="#D5C52E" stop-opacity="0.8543"/>
<stop offset="0.6152" stop-color="#CCC719" stop-opacity="0.7055"/>
<stop offset="0.7072" stop-color="#C5C90B" stop-opacity="0.5367"/>
<stop offset="0.8182" stop-color="#C1CA03" stop-opacity="0.3332"/>
<stop offset="1" stop-color="#C0CA00" stop-opacity="0"/>
</radialGradient>
<radialGradient id="paint25_radial_3_226" cx="0" cy="0" r="1" gradientUnits="userSpaceOnUse" gradientTransform="translate(187.118 95.1433) rotate(20.8726) scale(7.13542 7.13542)">
<stop offset="0.3697" stop-color="#FCC03D"/>
<stop offset="0.4198" stop-color="#E9C147"/>
<stop offset="0.4545" stop-color="#E2C24A"/>
<stop offset="0.4599" stop-color="#E1C248" stop-opacity="0.9902"/>
<stop offset="0.534" stop-color="#D5C52E" stop-opacity="0.8543"/>
<stop offset="0.6152" stop-color="#CCC719" stop-opacity="0.7055"/>
<stop offset="0.7072" stop-color="#C5C90B" stop-opacity="0.5367"/>
<stop offset="0.8182" stop-color="#C1CA03" stop-opacity="0.3332"/>
<stop offset="1" stop-color="#C0CA00" stop-opacity="0"/>
</radialGradient>
<radialGradient id="paint26_radial_3_226" cx="0" cy="0" r="1" gradientUnits="userSpaceOnUse" gradientTransform="translate(208.095 197.671) rotate(20.8726) scale(13.6979)">
<stop offset="0.3697" stop-color="#FCC03D"/>
<stop offset="0.4198" stop-color="#E9C147"/>
<stop offset="0.4545" stop-color="#E2C24A"/>
<stop offset="0.4599" stop-color="#E1C248" stop-opacity="0.9902"/>
<stop offset="0.534" stop-color="#D5C52E" stop-opacity="0.8543"/>
<stop offset="0.6152" stop-color="#CCC719" stop-opacity="0.7055"/>
<stop offset="0.7072" stop-color="#C5C90B" stop-opacity="0.5367"/>
<stop offset="0.8182" stop-color="#C1CA03" stop-opacity="0.3332"/>
<stop offset="1" stop-color="#C0CA00" stop-opacity="0"/>
</radialGradient>
<radialGradient id="paint27_radial_3_226" cx="0" cy="0" r="1" gradientUnits="userSpaceOnUse" gradientTransform="translate(207.867 139.53) rotate(20.8725) scale(13.6979 13.6979)">
<stop offset="0.3697" stop-color="#FCC03D"/>
<stop offset="0.4198" stop-color="#E9C147"/>
<stop offset="0.4545" stop-color="#E2C24A"/>
<stop offset="0.4599" stop-color="#E1C248" stop-opacity="0.9902"/>
<stop offset="0.534" stop-color="#D5C52E" stop-opacity="0.8543"/>
<stop offset="0.6152" stop-color="#CCC719" stop-opacity="0.7055"/>
<stop offset="0.7072" stop-color="#C5C90B" stop-opacity="0.5367"/>
<stop offset="0.8182" stop-color="#C1CA03" stop-opacity="0.3332"/>
<stop offset="1" stop-color="#C0CA00" stop-opacity="0"/>
</radialGradient>
<radialGradient id="paint28_radial_3_226" cx="0" cy="0" r="1" gradientUnits="userSpaceOnUse" gradientTransform="translate(265.334 208.599) rotate(20.8726) scale(27.4499)">
<stop offset="0.3697" stop-color="#FCC03D"/>
<stop offset="0.4198" stop-color="#E9C147"/>
<stop offset="0.4545" stop-color="#E2C24A"/>
<stop offset="0.4599" stop-color="#E1C248" stop-opacity="0.9902"/>
<stop offset="0.534" stop-color="#D5C52E" stop-opacity="0.8543"/>
<stop offset="0.6152" stop-color="#CCC719" stop-opacity="0.7055"/>
<stop offset="0.7072" stop-color="#C5C90B" stop-opacity="0.5367"/>
<stop offset="0.8182" stop-color="#C1CA03" stop-opacity="0.3332"/>
<stop offset="1" stop-color="#C0CA00" stop-opacity="0"/>
</radialGradient>
</defs>
</svg>
